<svg style="display:none">
	<symbol id="HorizontalZeeDog" xmlns="http://www.w3.org/2000/svg" fill="current-color" viewBox="0 0 63.21 15.77"><path d="M16.86 4.69c-.2 0-.37-.07-.5-.2-.14-.14-.2-.3-.2-.5 0-.19.07-.35.2-.49.14-.14.3-.21.5-.21h5.04c.25 0 .46.06.64.17.18.11.27.28.27.5 0 .15-.04.29-.11.41l-4.74 6.73h4.22c.2 0 .37.07.5.2.14.14.2.3.2.5 0 .19-.07.35-.2.49-.14.14-.3.21-.5.21h-5.47c-.26 0-.47-.07-.62-.2-.16-.13-.23-.29-.23-.49 0-.15.04-.29.13-.41l4.72-6.71h-3.85zm14.73 1.86c0-.46.09-.89.26-1.3.17-.41.42-.77.73-1.07.31-.3.67-.54 1.07-.72.4-.17.84-.26 1.31-.26.46 0 .89.09 1.3.26.41.17.77.41 1.07.72.3.3.54.66.72 1.07.18.41.27.84.27 1.3v1.34c0 .2-.07.37-.2.5-.14.14-.3.2-.5.2h-4.61v.63c0 .26.05.51.16.74.1.24.24.44.42.62.17.18.38.32.62.42.24.1.49.15.75.15.4 0 .75-.1 1.07-.31.32-.2.55-.48.72-.83l.02-.06c.05-.14.13-.24.25-.33.12-.08.25-.12.4-.12.2 0 .37.07.5.21.14.14.2.31.2.49 0 .09-.02.17-.06.26l-.04.07c-.26.59-.66 1.08-1.21 1.45-.54.37-1.17.56-1.86.56-.46 0-.89-.09-1.3-.26-.41-.17-.77-.41-1.07-.72-.3-.3-.55-.66-.72-1.07-.18-.41-.27-.84-.27-1.3V6.55zm1.42.63h3.91v-.63c0-.26-.05-.51-.16-.74-.1-.24-.24-.44-.42-.62-.18-.19-.39-.33-.63-.43-.24-.1-.49-.15-.75-.15-.27 0-.53.05-.76.15-.24.1-.44.24-.62.42s-.32.39-.42.62c-.1.24-.15.48-.15.74v.64zm-9.31-.63c0-.46.09-.89.26-1.3.17-.41.42-.77.73-1.07.31-.3.67-.54 1.07-.72.4-.17.84-.26 1.31-.26.46 0 .89.09 1.3.26.41.17.77.41 1.07.72.3.3.55.66.73 1.07.18.41.27.84.27 1.3v1.34c0 .2-.07.37-.2.5-.14.14-.3.2-.5.2h-4.61v.63c0 .26.05.51.16.74.11.24.24.44.42.62.17.18.38.32.62.42.24.1.49.15.75.15.4 0 .75-.1 1.07-.31.32-.2.56-.48.72-.83l.02-.06c.05-.14.13-.24.25-.33.12-.08.25-.12.4-.12.2 0 .37.07.5.21.14.14.21.31.21.49 0 .09-.02.17-.06.26l-.04.07c-.26.59-.66 1.08-1.21 1.45-.55.37-1.17.56-1.86.56-.46 0-.89-.09-1.3-.26-.41-.17-.77-.41-1.07-.72-.3-.3-.55-.66-.73-1.07-.18-.41-.27-.84-.27-1.3V6.55h-.01zm1.41.63h3.91v-.63c0-.26-.05-.51-.16-.74-.11-.24-.25-.44-.42-.62-.18-.19-.38-.33-.62-.43-.24-.1-.49-.15-.75-.15-.27 0-.53.05-.76.15-.24.1-.44.24-.62.42s-.32.39-.42.62c-.1.24-.15.48-.15.74v.64h-.01zM46.01.71c0-.2.07-.37.2-.5.14-.14.3-.2.5-.2.19 0 .35.07.49.2.14.14.21.3.21.5v8.52c0 .46-.09.89-.27 1.3-.18.41-.42.77-.73 1.07-.3.3-.66.54-1.07.72-.41.17-.84.26-1.3.26-.47 0-.91-.09-1.31-.26s-.76-.41-1.07-.72c-.31-.3-.55-.66-.72-1.07-.17-.41-.26-.84-.26-1.3V6.55c0-.46.09-.89.27-1.3.18-.41.42-.77.73-1.07.3-.3.66-.54 1.07-.72.41-.17.84-.26 1.3-.26.36 0 .7.06 1.03.17.33.11.64.27.92.46V.71h.01zM42.1 9.22c0 .26.05.51.15.74.1.24.24.44.42.62s.39.32.62.42c.24.1.49.15.76.15.26 0 .51-.05.75-.15.24-.1.45-.24.62-.42.17-.18.31-.39.42-.62.11-.24.16-.48.16-.74V6.55c0-.26-.05-.51-.15-.74-.1-.24-.24-.44-.42-.62-.17-.19-.38-.33-.61-.43-.24-.1-.49-.15-.76-.15-.26 0-.51.05-.75.15-.24.1-.45.24-.62.42-.17.18-.31.39-.42.62-.1.24-.16.48-.16.74v2.68h-.01zm6.49-2.67c0-.46.09-.89.26-1.3.17-.41.42-.77.73-1.07.31-.3.67-.54 1.07-.72.4-.17.84-.26 1.31-.26.46 0 .89.09 1.3.26.41.17.77.41 1.07.72.3.3.55.66.73 1.07.18.41.27.84.27 1.3v2.68c0 .46-.09.89-.26 1.3-.17.41-.42.77-.73 1.07-.31.3-.67.54-1.08.72-.41.17-.84.26-1.3.26-.46 0-.89-.09-1.3-.26-.41-.17-.77-.41-1.07-.72-.3-.3-.55-.66-.73-1.07-.18-.41-.27-.84-.27-1.3V6.55zM50 9.22c0 .26.05.51.16.74.11.24.24.44.42.62.17.18.38.32.62.42.24.1.49.15.75.15.27 0 .53-.05.76-.15.24-.1.44-.24.62-.42s.32-.39.42-.62c.1-.24.15-.48.15-.74V6.55c0-.26-.05-.51-.16-.74-.11-.24-.24-.44-.42-.62-.17-.19-.37-.33-.61-.43-.24-.1-.49-.15-.75-.15-.27 0-.53.05-.76.15-.24.1-.44.24-.62.42s-.32.39-.42.62c-.11.24-.16.49-.16.75v2.67zm6.48-2.67c0-.46.09-.89.26-1.3.17-.41.42-.77.73-1.07.31-.3.67-.54 1.07-.72.4-.17.84-.26 1.31-.26.46 0 .89.09 1.3.26.41.17.77.41 1.07.72.3.3.55.66.73 1.07.18.41.27.84.27 1.3v5.88c0 .46-.09.89-.27 1.3-.18.41-.42.77-.73 1.07-.3.3-.66.54-1.07.72-.41.17-.84.26-1.3.26-.2 0-.37-.07-.5-.2-.14-.14-.2-.3-.2-.5s.07-.37.2-.5c.14-.14.3-.2.5-.2.26 0 .51-.05.75-.15.24-.1.45-.24.62-.42.17-.18.31-.39.42-.62.11-.24.16-.48.16-.74v-.46c-.58.41-1.23.61-1.95.61-.46 0-.89-.09-1.3-.26-.41-.17-.77-.41-1.07-.72-.3-.3-.55-.66-.73-1.07-.18-.41-.27-.84-.27-1.3v-2.7zm1.41 2.67c0 .26.05.51.16.74.1.24.24.44.42.62.17.18.38.32.62.42.24.1.49.15.75.15s.51-.05.74-.14c.24-.09.44-.22.61-.39.17-.17.31-.36.42-.59.11-.22.16-.46.18-.72V6.55c0-.26-.05-.51-.16-.74-.1-.24-.24-.44-.42-.62-.16-.19-.37-.33-.61-.43-.24-.1-.49-.15-.75-.15-.27 0-.53.05-.76.15-.24.1-.44.24-.62.42s-.32.39-.42.62c-.1.24-.15.48-.15.74v2.68zM38.8 11.88c0-.2.07-.37.2-.5.14-.14.3-.2.5-.2.19 0 .35.07.49.2.14.14.21.3.21.5s-.07.37-.2.5c-.14.14-.3.2-.5.2-.19 0-.35-.07-.49-.2-.13-.14-.21-.3-.21-.5z" /> <path fill-rule="evenodd" d="M11.54 4.13c.31-.41.46-1.21.32-2.1C11.67.82 10.98-.09 10.38 0c-.55.09-.82 1.1-.7 2.21-1-.82-2.31-1.32-3.72-1.32-1.42 0-2.72.49-3.73 1.32C2.35 1.09 2.08.09 1.52 0 .92-.09.24.82.05 2.03c-.14.88-.01 1.68.31 2.08.08.1.2.28.13.49-.18.59-.31 1.2-.31 1.84 0 1.46.57 2.73 1.51 3.73v2c0 .16.12.32.29.32h.92v-1.02c0-.06.05-.11.11-.11h.04c.06 0 .11.05.11.11v1.02h1.2v-1.02c0-.06.05-.11.11-.11h.04c.06 0 .11.05.11.11v1.02h1.2v-1.02c0-.06.05-.11.11-.11h.04c.06 0 .11.05.11.11v1.02h1.2v-1.02c0-.06.05-.11.11-.11h.04c.06 0 .11.05.11.11v1.02h1.2v-1.02c0-.06.05-.11.11-.11h.04c.06 0 .11.05.11.11v1.02h.86c.19-.01.33-.13.33-.32v-2c.94-1 1.53-2.27 1.53-3.73 0-.64-.11-1.26-.32-1.83-.03-.15.05-.37.14-.48zM3.1 8.56c-.87 0-1.57-.98-1.57-2.19s.7-2.19 1.57-2.19 1.57.98 1.57 2.19-.71 2.19-1.57 2.19zm2.29 1.61.56-.89.56.89H5.39zm3.42-1.61c-.87 0-1.57-.98-1.57-2.19s.7-2.19 1.57-2.19c.87 0 1.57.98 1.57 2.19s-.7 2.19-1.57 2.19z" clip-rule="evenodd" /> </symbol>
	<symbol id="ZeeDogKitchen" xmlns="http://www.w3.org/2000/svg" fill="current-color" viewBox="0 0 507.6 156"><path d="M86 150.6H61c-3.4 0-6.5-1.6-6.5-4.3 0-3.4 4.3-4.2 4.3-6.3 0-1.9-.9-3.8-1.6-5.5L44.7 99.8l-2.2 1.9v35.4c0 5.8 5.4 5.5 5.4 9.2 0 3.4-4 4.3-7.8 4.3H15.3c-3.8 0-7.8-.9-7.8-4.3 0-3.5 5.4-3.8 5.4-9.2V74.2c0-5.1-5.4-5.7-5.4-9.2 0-3.4 4-4.3 7.8-4.3h24.8c3.8 0 7.8.9 7.8 4.3 0 3.6-5.4 3.5-5.4 9.2v9.3l12-9.3c.7-.7 1.4-1.3 2.4-1.9.5-.5 1.1-1.2 1.1-1.9 0-.8-2.2-3.2-3.1-3.9-.2-.5-.4-.9-.4-1.5 0-3.9 4-4.3 8.3-4.3h20.3c4.3 0 7.6.7 7.6 4.3 0 3-2.7 3.9-5.8 5.1-7.2 3-12.3 8.2-17.9 12.5l18.1 48.9c1.4 3.9 2.5 7.7 6.5 10.8 1.4 1.2 2.7 2 2.7 3.8 0 3.8-4.3 4.5-8.3 4.5zm37.8 0h-19.9c-3.1 0-6.9-.8-6.9-3.6 0-2 2.5-3.4 3.6-5.1.9-1.5.9-3.4.9-4.9v-29.8c0-4.2-5.4-4.3-5.4-7.3s4.2-3.9 7.1-5l8.5-3c2.9-.9 6-2.2 9.2-2.2 6 0 5.3 4.2 5.3 7.4v37.6c0 1.5 0 3.1.2 4.7.4 3.8 4.2 4.9 4.2 7.4-.1 3-3.5 3.8-6.8 3.8zm-17.2-66.7c-5.8 0-10.1-3.2-10.1-7.5 0-6.7 11-12 19.4-12 5.8 0 10.1 2.8 10.1 7.3 0 7.1-10.7 12.2-19.4 12.2zm55.1 67.6c-5.3 0-10.5-.8-14.9-3.1-6.5-3.5-6.3-8.9-6.3-14.3v-32.3c-4.2-.1-8-1.2-8-4.9 0-2.8 2.4-4 5.1-5.8 5.6-3.5 8.7-7.5 11.8-12.4.9-1.3 1.8-2.8 2.9-4.2 1.4-1.6 3.8-3 6.5-3 5.8 0 6.2 4.2 6.2 7.4v11.3h6.3c6.2 0 9.4.3 9.4 5.7 0 5-3.4 5.3-9.2 5.3H165v31.1c0 2.4.9 6.3 5.1 6.3 2.4 0 4.2-1.6 6.9-1.6 3.3 0 5.1 2.6 5.1 4.7-.2 7.7-12.5 9.8-20.4 9.8zm52.1 0c-20.3 0-31.5-14.1-31.5-27.9 0-4.6.9-9.2 2.9-13.5 4.3-9.8 15.4-20.6 30.6-20.6 10 0 22.6 5.9 22.6 14 0 2.3-2.5 3.9-4.7 5.3-2.7 1.8-8.7 5.3-12.3 5.3-5.8 0-5.4-5-5.4-8.1 0-2.4-1.3-6.6-5.4-6.6-6.5 0-7.6 8.4-7.6 11.9 0 6.2 3.3 23.9 14.5 23.9 7.6 0 7.6-8.4 14.3-8.4 5.4 0 7.8 4 7.8 7.5-.1 10.4-12.7 17.2-25.8 17.2zm90.6-.9h-16.8c-3.4 0-8.1 0-8.1-3.5 0-2.7 4.3-3.5 4.3-9.2 0-4.6-2.2-32.1-9.1-32.1-2.5 0-2.5 3.4-2.5 4.7v22.8c0 2.2 0 4.2.2 6.2.5 3.9 4.2 4.9 4.2 7.4 0 2.8-3.4 3.6-6.7 3.6H250c-3.1 0-6.9-.8-6.9-3.6 0-2 2.5-3.4 3.6-5.1.9-1.5.9-3.6.9-5.3v-58c0-5-5.4-4.7-5.4-7.8 0-2.8 4.2-4 7.1-5 4.9-1.8 12.3-5 17.7-5 6.2 0 5.3 4 5.3 7.3v26.5c3.3-2.8 5.4-5 10.9-5 5.4 0 11.4 3.8 14.1 7 8.3 9.8 10.9 28.3 11.4 39.8.2 2.4.2 4.9 2.2 7 .9 1.1 2.4 2 2.4 3.4-.2 3.6-5.1 3.9-8.9 3.9zm56.6-29.9-21.6 5.1c.9 4.2 4 10.4 10.9 10.4 5.8 0 5.4-6.3 11.8-6.3 5.3 0 6.5 3.5 6.5 6.7 0 9.4-10.9 15-22.6 15-20.1 0-30.4-14-30.4-27.5 0-4.6.9-9.2 2.7-13.6 3.6-9.3 13.6-20.9 28.3-20.9 16.1 0 25.2 13.5 25.2 24-.1 4.9-5.5 5.9-10.8 7.1zm-19.2-21c-5.4 0-5.6 7-5.6 9.8 0 2.6.4 5.1 1.1 7.7 5.3-1.6 10.3-3.8 10.3-8.6 0-2.7-.9-8.9-5.8-8.9zm96.6 50.9h-16.5c-3.4 0-8.1-.3-8.1-3.6 0-2.7 4.2-3.9 4.2-9.4 0-4.6-2.4-31.8-9.2-31.8-2.4 0-2.4 3.2-2.4 4.4v23.2c0 2.2 0 4.2.2 6.2.5 3.9 4.2 4.9 4.2 7.4 0 2.8-3.4 3.6-6.7 3.6H384c-3.1 0-6.9-.8-6.9-3.6 0-2 2.5-3.5 3.6-5.1.9-1.5.9-3.8.9-5.4v-28.8c0-5-5.4-4.6-5.4-7.7 0-3 4.2-3.9 7.1-5 4-1.3 12.9-5.1 17.7-5.1 4 0 4.9 2.2 5.3 4.7 2.7-2.8 5.8-5 10.7-5 10.9 0 17.4 10.1 19.9 16.7 3.8 9.8 4.9 20.1 6 30.2.2 1.9 0 4.7 1.4 6.3 1.3 1.3 2.9 2.3 2.9 4 0 3.5-5.4 3.8-8.8 3.8zM10.7 19.8c-.6 0-1.2-.2-1.6-.7-.5-.4-.7-1-.7-1.6 0-.6.2-1.1.7-1.6.4-.5 1-.7 1.6-.7h16.5c.8 0 1.5.2 2.1.6.6.4.9.9.9 1.6 0 .5-.1.9-.4 1.3l-15.5 22h13.8c.6 0 1.2.2 1.6.7.5.5.7 1 .7 1.7 0 .6-.2 1.1-.7 1.6-.4.5-1 .7-1.6.7H10.2c-.9 0-1.5-.2-2-.6-.5-.4-.8-1-.8-1.6 0-.5.1-.9.4-1.3l15.5-22H10.7zm48.2 6.1c0-1.5.3-2.9.9-4.3.6-1.3 1.4-2.5 2.4-3.5s2.2-1.8 3.5-2.3c1.3-.6 2.7-.9 4.3-.9 1.5 0 2.9.3 4.3.9 1.3.6 2.5 1.4 3.5 2.3 1 1 1.8 2.2 2.4 3.5.6 1.3.9 2.8.9 4.3v4.4c0 .6-.2 1.2-.7 1.6-.5.5-1 .7-1.7.7H63.5v2.1c0 .9.2 1.7.5 2.4.3.8.8 1.4 1.4 2 .6.6 1.2 1 2 1.4.8.3 1.6.5 2.5.5 1.3 0 2.5-.3 3.5-1s1.8-1.6 2.3-2.7l.1-.2c.2-.5.4-.8.8-1.1.4-.3.8-.4 1.3-.4.6 0 1.2.2 1.6.7.4.5.7 1 .7 1.6 0 .3-.1.6-.2.9l-.1.2c-.9 1.9-2.2 3.5-3.9 4.7-1.8 1.2-3.8 1.8-6.1 1.8-1.5 0-2.9-.3-4.3-.8-1.3-.6-2.5-1.4-3.5-2.3-1-1-1.8-2.2-2.4-3.5-.6-1.3-.9-2.7-.9-4.3v-8.7zm4.6 2h12.8v-2.1c0-.9-.2-1.7-.5-2.4-.3-.8-.8-1.4-1.4-2-.6-.6-1.3-1-2.1-1.4-.8-.3-1.6-.5-2.5-.5-.9 0-1.7.2-2.5.5s-1.5.8-2 1.4c-.6.6-1 1.3-1.4 2-.3.8-.5 1.6-.5 2.4v2.1zm-30.5-2c0-1.5.3-2.9.9-4.3.6-1.3 1.4-2.5 2.4-3.5s2.2-1.8 3.5-2.3c1.3-.6 2.7-.9 4.3-.9 1.5 0 2.9.3 4.3.9 1.3.6 2.5 1.4 3.5 2.3 1 1 1.8 2.2 2.4 3.5.6 1.3.9 2.8.9 4.3v4.4c0 .6-.2 1.2-.7 1.6-.5.5-1 .7-1.7.7H37.7v2.1c0 .9.2 1.7.5 2.4s.8 1.4 1.4 2c.6.6 1.2 1 2 1.4.8.3 1.6.5 2.5.5 1.3 0 2.5-.3 3.5-1s1.8-1.6 2.3-2.7l.1-.2c.2-.5.4-.8.8-1.1.4-.3.8-.4 1.3-.4.6 0 1.2.2 1.6.7.5.5.7 1 .7 1.6 0 .3-.1.6-.2.9l-.1.2c-.9 1.9-2.2 3.5-3.9 4.7-1.8 1.2-3.8 1.8-6.1 1.8-1.5 0-2.9-.3-4.3-.8-1.3-.6-2.5-1.4-3.5-2.3-1-1-1.8-2.2-2.4-3.5-.6-1.3-.9-2.7-.9-4.3v-8.7zm4.7 2h12.8v-2.1c0-.9-.2-1.7-.5-2.4-.3-.8-.8-1.4-1.4-2-.6-.6-1.3-1-2-1.4-.8-.3-1.6-.5-2.5-.5-.9 0-1.7.2-2.5.5s-1.5.8-2 1.4c-.6.6-1 1.3-1.4 2-.3.8-.5 1.6-.5 2.4v2.1zM106 6.8c0-.7.2-1.2.7-1.7.5-.4 1-.7 1.6-.7.6 0 1.1.2 1.6.7.5.5.7 1 .7 1.7v27.9c0 1.5-.3 2.9-.9 4.3-.6 1.3-1.4 2.5-2.4 3.5s-2.2 1.8-3.5 2.3c-1.3.6-2.7.8-4.3.8-1.5 0-3-.3-4.3-.8-1.3-.6-2.5-1.4-3.5-2.3-1-1-1.8-2.2-2.4-3.5-.6-1.3-.9-2.7-.9-4.3v-8.8c0-1.5.3-2.9.9-4.3.6-1.3 1.4-2.5 2.4-3.5s2.2-1.8 3.5-2.3c1.3-.6 2.7-.9 4.2-.9 1.2 0 2.3.2 3.4.6 1.1.4 2.1.9 3 1.5V6.8zM93.3 34.6c0 .9.2 1.7.5 2.4.3.8.8 1.4 1.4 2 .6.6 1.3 1 2 1.4.8.3 1.6.5 2.5.5.9 0 1.7-.2 2.5-.5s1.5-.8 2-1.4c.6-.6 1-1.3 1.4-2 .3-.8.5-1.6.5-2.4v-8.8c0-.9-.2-1.7-.5-2.4-.3-.8-.8-1.4-1.4-2-.6-.6-1.3-1-2-1.4-.8-.3-1.6-.5-2.5-.5-.9 0-1.7.2-2.5.5s-1.5.8-2 1.4c-.6.6-1 1.3-1.4 2-.3.8-.5 1.6-.5 2.4v8.8zm21.2-8.7c0-1.5.3-2.9.9-4.3.6-1.3 1.4-2.5 2.4-3.5s2.2-1.8 3.5-2.3c1.3-.6 2.7-.9 4.3-.9 1.5 0 2.9.3 4.3.9 1.3.6 2.5 1.4 3.5 2.3 1 1 1.8 2.2 2.4 3.5.6 1.3.9 2.8.9 4.3v8.8c0 1.5-.3 2.9-.9 4.3-.6 1.3-1.4 2.5-2.4 3.5s-2.2 1.8-3.5 2.3c-1.3.6-2.7.8-4.3.8-1.5 0-2.9-.3-4.2-.8-1.4-.6-2.5-1.4-3.5-2.3s-1.8-2.2-2.4-3.5c-.6-1.3-.9-2.7-.9-4.3v-8.8zm4.6 8.7c0 .9.2 1.7.5 2.4.3.8.8 1.4 1.4 2 .6.6 1.3 1 2.1 1.4.8.3 1.6.5 2.5.5.9 0 1.7-.2 2.5-.5s1.4-.8 2-1.4c.6-.6 1-1.3 1.4-2 .3-.8.5-1.6.5-2.4v-8.8c0-.9-.2-1.7-.5-2.4-.3-.8-.8-1.4-1.4-2-.6-.6-1.3-1-2-1.4-.8-.3-1.6-.5-2.5-.5-.9 0-1.7.2-2.5.5s-1.4.8-2 1.4c-.6.6-1 1.3-1.4 2-.3.8-.5 1.6-.5 2.4v8.8zm21.2-8.7c0-1.5.3-2.9.9-4.3.6-1.3 1.4-2.5 2.4-3.5s2.2-1.8 3.5-2.3c1.3-.6 2.7-.9 4.3-.9 1.5 0 2.9.3 4.2.9 1.3.6 2.5 1.4 3.5 2.3 1 1 1.8 2.2 2.4 3.5.6 1.3.9 2.8.9 4.3v19.2c0 1.5-.3 2.9-.9 4.2-.6 1.3-1.4 2.5-2.4 3.5s-2.2 1.8-3.5 2.3c-1.3.6-2.7.9-4.2.9-.7 0-1.2-.2-1.7-.7-.5-.4-.7-1-.7-1.6 0-.6.2-1.2.7-1.6.5-.5 1-.7 1.7-.7.8 0 1.7-.2 2.5-.5s1.5-.8 2-1.4c.6-.6 1-1.3 1.4-2 .3-.8.5-1.6.5-2.4v-1.5c-1.9 1.3-4 2-6.4 2-1.5 0-2.9-.3-4.3-.8-1.3-.6-2.5-1.4-3.5-2.3s-1.8-2.2-2.4-3.5c-.6-1.3-.9-2.7-.9-4.3v-8.8zm4.6 8.7c0 .9.2 1.7.5 2.4.3.8.8 1.4 1.4 2 .6.6 1.3 1 2 1.4.8.3 1.6.5 2.5.5.8 0 1.7-.2 2.4-.5.8-.3 1.4-.7 2-1.3.6-.5 1-1.2 1.4-1.9.3-.7.5-1.5.6-2.4v-9.1c0-.9-.2-1.7-.5-2.4-.3-.8-.8-1.4-1.4-2-.6-.6-1.2-1-2-1.4-.8-.3-1.6-.5-2.5-.5-.9 0-1.7.2-2.5.5s-1.4.8-2 1.4c-.6.6-1 1.3-1.4 2-.3.8-.5 1.6-.5 2.4v8.9zM82.5 43c0-.7.2-1.2.7-1.7.4-.4 1-.7 1.6-.7.6 0 1.1.2 1.6.7.5.5.7 1 .7 1.7 0 .6-.2 1.2-.7 1.6-.5.5-1 .7-1.7.7-.6 0-1.1-.2-1.6-.7-.4-.4-.6-.9-.6-1.6m396.7 65.6c5 0 9.6 1.8 13.2 4.7-.4-4 .7-7.4 2.7-7.7 2.1-.3 4.3 2.9 5 7.3.5 3.2 0 6.1-1.1 7.5-.3.4-.6 1.2-.4 1.7.7 2.1 1.1 4.3 1.1 6.6 0 5.2-2 10-5.4 13.6v7c0 .7-.5 1.1-1.2 1.2H490v-3.2c0-.2-.2-.4-.4-.4h-.1c-.2 0-.4.2-.4.4v3.2h-4.3v-3.2c0-.2-.2-.4-.4-.4h-.1c-.2 0-.4.2-.4.4v3.2h-4.3v-3.2c0-.2-.2-.4-.4-.4h-.1c-.2 0-.4.2-.4.4v3.2h-4.3v-3.2c0-.2-.2-.4-.4-.4h-.1c-.2 0-.4.2-.4.4v3.2h-4.3v-3.2c0-.2-.2-.4-.4-.4h-.1c-.2 0-.4.2-.4.4v3.2h-3.2c-.6 0-1-.6-1-1.2v-7c-3.3-3.6-5.4-8.4-5.4-13.6 0-2.3.4-4.5 1.1-6.6.2-.8-.2-1.4-.5-1.8-1.1-1.5-1.6-4.3-1.1-7.5.7-4.4 2.9-7.6 5-7.3 2 .3 3.1 3.7 2.7 7.7 3.6-2.8 8.2-4.6 13.3-4.6m10.1 27.8c3.1 0 5.6-3.5 5.6-7.9s-2.5-7.9-5.6-7.9c-3.1 0-5.6 3.5-5.6 7.9.1 4.4 2.6 7.9 5.6 7.9m-20.3 0c3.1 0 5.6-3.5 5.6-7.9s-2.5-7.9-5.6-7.9-5.6 3.5-5.6 7.9 2.5 7.9 5.6 7.9m10.1 2.3-1 1.7-1 1.7h4l-1-1.7-1-1.7z"/></symbol>
	<symbol id="ZeeDogHuman" xmlns="http://www.w3.org/2000/svg" fill="current-color" viewBox="0 0 150 58.59"><path d="M42.75 50.64v-3.79h1.87v9.61h-1.87v-4.3h-3.47v4.3H37.4v-9.61h1.87v3.79h3.48zm10.84-3.78h1.87v5.38c0 1.19.1 2.86 1.7 2.86 1.59 0 1.7-1.67 1.7-2.86v-5.38h1.87v5.75c0 2.35-.99 4.12-3.57 4.12s-3.57-1.77-3.57-4.12v-5.75zm23.3 3.64h-.03l-2.18 6.09h-.65l-2.1-6.09h-.03l-.85 5.97h-1.89l1.62-9.87h1.33l2.37 6.34 2.27-6.34h1.35l1.44 9.87h-1.89l-.76-5.97zm13.09 3.94-.79 2.03h-1.98l3.75-9.87h1.45l3.65 9.87h-2l-.74-2.03h-3.34zm1.62-5.02h-.03l-1.06 3.49h2.28l-1.19-3.49zm12.68-2.82h1.35l5.06 6.72h.03v-6.46h1.87v9.8h-1.35l-5.06-6.72h-.03v6.53h-1.87V46.6zM23.65 16.85c-.17-.14-.35-.28-.52-.42-.09-.08-.21-.15-.24-.25-.15-.45-.56-.46-.9-.46-.34 0-.67.14-1 .23-.25.07-.5.15-.74.25-.23.09-.46.18-.65.33-.25.19-.55.32-.76.51-.33.29-.86.29-1.04.76-.32.05-.51.45-.91.28-.14-.06-.31-.04-.47-.04-.48-.01-.64-.13-.79-.59-.03-.09-.06-.19-.13-.24-.3-.24-.25-.51-.09-.78.24-.41.58-.78.7-1.21.09-.32.18-.33.45-.43.34-.12.65-.35 1-.48.22-.08.4-.28.62-.38.46-.21.93-.39 1.4-.59.36-.15.72-.32 1.09-.46.17-.06.35-.09.53-.1.42-.03.84-.04 1.27-.05.02 0 .04 0 .06.01.38.11.75.29 1.17.16.08-.03.22.13.37.23.16-.13.33-.02.5.12.06.05.13.15.19.15.59.04.91.51 1.32.83.1.08.3.18.34.15.12-.11.27-.29.26-.44-.01-.22.09-.33.22-.46.09-.09.19-.2.21-.31.04-.33.29-.5.48-.72.15-.18.32-.4.35-.62.05-.32.28-.49.44-.73.03-.05.07-.12.05-.16-.02-.04-.1-.09-.15-.08-.61.07-1.11-.19-1.61-.48-.68-.4-1.37-.77-2.04-1.18-.25-.15-.48-.34-.71-.53-.46-.37-.98-.6-1.54-.76-.26-.08-.47-.34-.73-.48-.23-.13-.48-.22-.73-.3-.18-.06-.37-.09-.56-.09-.81.02-1.58-.45-2.41-.15-.11.04-.23.02-.35.03-.56.04-1.12.02-1.64.28-.15.07-.33.08-.5.09-.24.03-.42.15-.63.27-.4.23-.71.58-1.17.76-.52.21-1.1.4-1.51.87-.15.16-.39.24-.59.36-.31.2-.62.39-.9.61-.19.14-.32.35-.51.49-.27.21-.57.38-.86.56-.04.02-.1.03-.11.06-.17.35-.53.18-.79.29-.18.09-.42.08-.59.17-.26.16-.51.18-.8.07-.18-.07-1.58-.5-1.84-.8-.05-.05-.11-.14-.1-.19.09-.31.05-.65.31-.92.24-.24.44-.53.66-.8.02-.02.66-1.21.97-1.27.21-.04.57-.5.64-.48.54.11.9-.22 1.28-.49.24-.16.44-.39.68-.55.34-.23.7-.45 1.07-.63.57-.27 1.19-.46 1.74-.77.62-.35 1.26-.63 1.94-.84.52-.16 1-.42 1.59-.39.43.02.86-.17 1.29-.29.59-.16 1.18-.16 1.79-.07.65.1 1.32.12 1.97.2.38.05.74.15 1.11.24.52.13 1.02.33 1.49.61.63.38 1.25.76 1.9 1.1.42.22.87.37 1.31.55.85.35 1.76.36 2.66.47.41.05.8.21 1.21.24.43.03.87 0 1.29-.07.93-.16 1.86-.34 2.78-.54.27-.06.52-.2.79-.27.18-.05.38-.04.57-.03.19 0 .37.04.36.3 0 .03 0 .07.02.09.17.2.52.91.59 1.04.13.25.06.48-.1.65-.41.42-.81.85-1.31 1.19-.42.29-.85.62-1.06 1.15-.07.17-.24.29-.35.45-.33.48-.64.97-.97 1.44-.34.48-.71.93-1.05 1.41-.17.25-.27.54-.45.78-.17.22-.42.39-.61.6-.26.28-.62.48-.72.89-.01.03-.04.04-.07.07-.34.35-.34.35-.22.88.14-.01.29-.02.44-.03.01 0 .02-.01.03-.01.42.21.71-.17 1.07-.23.42-.07.82-.21 1.17-.46.03-.02.09-.07.11-.06.3.13.51-.14.77-.18.23-.04.39-.17.43-.43.01-.04.07-.08.11-.1.15-.09.32-.14.44-.25.47-.48.95-.24 1.43-.04.09.04.2.12.23.2.12.39.23.79.31 1.2.02.1-.07.22-.1.32.28.3.33.67.14 1.03-.08.14-.1.33-.21.43-.18.17-.41.29-.63.43-.31.19-.73.18-.97.5-.05.06-.15.11-.22.11-.63-.04-1.2.22-1.81.33-.49.08-.97.21-1.45.3-.11.02-.25.02-.33-.04-.38-.25-.79-.4-1.25-.36-.09.01-.18-.06-.28-.07-.38-.05-.74-.13-1.09-.35-.21-.13-.54-.1-.81-.1-.13 0-.29.03-.39.11-.34.29-.66.6-.98.91-.34.33-.66.68-1.02 1-.12.1-.33.1-.46.19-.57.38-1.13.78-1.7 1.16-.14.09-.32.11-.47.18-.21.1-.42.23-.63.34-.23.12-.46.25-.69.37-.17.09-.35.16-.5.28-.24.19-.43.44-.68.59-.3.19-.65.32-.98.46-.17.07-.35.13-.52.18-.12.04-.24.06-.36.09-.1.02-.21.04-.31.07-.15.04-.29.08-.44.11-.02.01-.04 0-.06.01-.29.14-.58.27-.87.43-.08.04-.12.16-.17.24.09.03.18.09.27.09.74.03 1.49.02 2.23.09.68.06 1.35.16 2.01.32 1.01.24 2.01.53 3.02.8.38.1.77.18 1.15.31.4.14.78.31 1.17.48.43.18.87.36 1.3.56.32.15.64.32.96.47.74.36 1.52.53 2.35.55.51.01 1.02.11 1.53.12.9.02 1.81.04 2.71-.03.88-.07 1.75-.24 2.62-.37.22-.03.45-.06.65-.13.19-.07.36-.19.54-.29.12-.07.23-.17.35-.2.34-.09.57-.27.68-.61.02-.07.1-.18.15-.18.47 0 .44-.42.59-.68.02-.03 0-.08.02-.09.25-.2.49-.41.74-.6.05-.04.14-.01.18-.05.31-.26.55-.08.74.14.22.26.42.56.57.87.05.11-.06.31-.11.47-.04.14-.1.27-.14.4-.08.24-.14.49-.22.73-.09.26-.26.46-.57.48-.04 0-.07.04-.1.07-.43.38-.87.75-1.29 1.15-.15.14-.19.4-.35.51-.26.19-.57.32-.9.49-.01.2-.08.43-.43.42-.05 0-.1.04-.14.08-.26.26-.51.53-.76.8-.02.02-.04.05-.07.06-.57.23-1.13.48-1.7.68-.66.23-1.32.44-2 .6-.21.05-.46-.1-.7-.14-.12-.02-.24.01-.36.01-.17.01-.34.01-.51.01-.02 0-.04-.04-.05-.04-.28.15-.48-.1-.73-.13-.54-.06-1.07-.18-1.52-.52-.02-.01-.04-.03-.06-.03-.56.09-.91-.38-1.36-.56-.38-.15-.82-.21-1.13-.43-.43-.3-.87-.41-1.35-.56-.43-.13-.8-.46-1.21-.68-.16-.09-.36-.11-.53-.19-.23-.1-.45-.21-.68-.31-.05-.02-.11-.03-.16-.02-.38.13-.69.03-.94-.28-.04-.05-.12-.1-.16-.09-.39.12-.66-.23-1-.24-.54-.02-1.09.02-1.63 0-.28-.01-.56-.07-.84-.11-.09-.01-.18-.02-.26-.03-.1-.01-.21-.01-.31-.01-.11 0-.22.02-.33.02-.14 0-.33.06-.43-.01-.23-.16-.43-.23-.67-.05-.04.03-.1.02-.15.02-.22-.03-.44-.07-.65-.08-.36-.02-.72-.04-1.08-.03-.36.01-.73.08-1.09.11-.34.03-.69.04-1.03.06-.12.01-.24 0-.35.02-.71.16-1.41.33-2.12.5-.13.03-.28.02-.41.06-.61.16-1.21.34-1.82.51-.07.02-.14.08-.21.07-.56-.09-.97.34-1.47.45-.21.05-.36.31-.58.4-.52.21-1.06.37-1.58.57-.22.08-.4.25-.62.33-.29.1-.42.34-.63.51-.23.17-.56.21-.86.29-.13.04-.27.03-.4.06-.46.12-.68.03-.88-.32-.21-.39-.36-.85-.77-1.14-.3-.21-.13-.63.09-.95.36-.51.72-1.01 1.1-1.51.14-.18.27-.4.46-.51.24-.14.34-.36.49-.56.13-.19.32-.35.5-.51.39-.35.77-.71 1.08-1.14.32-.45.76-.79 1.27-1.02.09-.04.18-.08.25-.14.35-.35.77-.58 1.22-.78.57-.25 1.1-.59 1.65-.88.42-.22.85-.44 1.27-.66.58-.3 1.15-.62 1.75-.89.38-.18.8-.29 1.2-.41.45-.14.89-.28 1.35-.38.81-.18 1.54-.55 2.29-.86.56-.24 1.11-.5 1.67-.74.18-.08.39-.13.56-.22.43-.24.86-.49 1.29-.74.24-.13.51-.22.72-.39.38-.32.83-.49 1.27-.7.1-.05.16-.17.26-.24.1-.08.21-.13.32-.2.07-.04.14-.08.21-.13.23-.23.49-.45.79-.71zm111.79.75c-.08.1-.15.22-.24.3-.13.11-.27.2-.42.27-.11.05-.24.06-.4.1.12.26-.02.35-.24.4-.26.06-.52.16-.78.2-.15.03-.31-.02-.5-.04-.21.13-1.06.37-1.12.38-.17.04-.34.05-.5.07-.05.01-.61.16-.83.15-.34-.02-.56.2-.78.36-.17.13-.11.39-.03.6.03.07.1.19.07.22-.23.28.02.43.15.62.05.08.16.15.16.23.01.34.55 1.72.94 1.91.07.03.11.14.19.17.11.04.25.11.34.07.29-.14.59-.3.84-.5.16-.13.25-.34.35-.53.12-.22.22-.44.31-.67.04-.1.01-.22.01-.33-.03 0 .06-.19.11-.29.21-.52.61-.79 1.19-.76.43.02.86.08 1.32.13-.02.13-.04.19-.05.26.34.06.55.35.27.66.19.25.22.5.03.79-.06.08-.05.3.01.35.26.2.19.42.11.66-.01.04-.01.08-.02.14.09.04-.19 1.7-.17 1.94.03.31.07.62.07.93.01.6 0 1.19 0 1.83.13-.02.24-.01.32-.06.65-.34 1.36-.29 2.05-.38.69-.09 1.38-.1 2.05-.32.19-.06.35-.19.52-.29.13-.07.27-.13.39-.21.12-.08.22-.19.33-.28.16-.15.32-.29.47-.45.25-.28.49-.57.74-.84.12-.13.25-.24.37-.36.28-.27.55-.54.83-.81.04-.04.07-.11.12-.12.15-.05.19-.22.27-.29.42-.35.51-.89.75-1.33.22-.39.45-.8.66-1.2.15-.28.31-.56.41-.86.03-.1-.08-.25-.14-.4.02-.1.05-.26.08-.42.01-.04-.01-.11.01-.12.3-.15.13-.41.13-.62 0-.3-.01-.59 0-.89 0-.06.03-.12.06-.17.19-.28.49-1 .44-1.08.03-.03.05-.07.07-.08.14-.04.2-.13.24-.28.09-.35.43-.44.72-.23.21.16.47.28.62.49.14.19.19.45.25.69.08.3-.04.62.15.93.1.16.07.42.05.63.48 1.17.47 1.8.48 1.89.03.24.07.48.12.72.03.12.11.22.13.34.02.1.04.29 0 .31-.19.09-.18.26-.22.42-.15.55-.31 1.1-.51 1.63-.05.14-.27.22-.41.32-.06.05-.17.1-.18.15-.06.5-.44.8-.69 1.18-.14.21-.27.43-.37.66-.21.45-.52.79-.95 1.03-.09.05-.16.12-.24.18-.34.27-.67.54-1 .82-.42.36-.95.48-1.45.65-.12.04-.24.1-.35.15-.58.24-1.16.48-1.73.73-.33.14-.65.31-.98.44-.41.17-.83.32-1.25.48-.13.05-.28.11-.41.11-.42-.01-.79.06-1.15.31-.19.13-.46.13-.7.19-.33.08-.71.07-.94.38-.08.1-.17.22-.17.33.03.67.09 1.35.12 2.02.02.37 0 .74.03 1.1.02.23.14.45.14.68 0 .52-.01 1.05-.07 1.57-.09.82-.21 1.64-.35 2.45-.06.35-.15.68-.37.99-.23.32-.35.73-.44 1.11-.17.66-.43 1.26-.89 1.77-.2.22-.34.49-.52.71-.11.14-.28.23-.41.35-.09.08-.17.19-.25.27-.37.36-.71.77-1.13 1.06-.23.16-.59.12-.9.17-.14.02-.27.04-.41.07-.04.01-.09.05-.12.03-.37-.18-.75-.01-1.13-.04-.17-.01-.32-.1-.55-.18-.36.17-.74.11-1.06-.27-.08-.1-.24-.14-.35-.22-.16-.12-.33-.23-.48-.37-.2-.17-.39-.36-.6-.56-.04-.15-.09-.34-.14-.54-.13-.54-.29-1.08-.39-1.63-.06-.34-.02-.71-.03-1.06 0-.21-.01-.42-.02-.64 0-.18-.03-.36 0-.53.08-.5.18-.99.26-1.49.04-.28.05-.56.08-.84.01-.09.07-.17.1-.26.1-.24.21-.47.31-.71.15-.35.28-.71.43-1.05.18-.4.37-.8.57-1.2.09-.17.23-.32.32-.49.19-.34.37-.68.56-1.02.08-.14.18-.26.32-.46-.19-.37.34-.44.48-.73.2-.41.47-.78.83-1.1.26-.23.41-.59.67-.8.31-.25.55-.61 1-.68.41-.07.5-.26.42-.67-.06-.33-.11-.66-.14-.99-.01-.08.1-.18.15-.27-.56-.3-1.15-.18-1.73-.15-.06 0-.15.03-.19 0-.32-.29-.85-.23-1.08-.7-.07-.14-.39-.15-.56-.26-.23-.16-.42-.39-.64-.57-.62-.49-.98-1.17-1.41-1.81-.11-.16-.19-.33-.24-.5-.02-.15-.02-.31-.08-.44-.26-.67-.26-1.37-.24-2.08-.32.1-.53.41-.56.74-.03.34-.11.68-.13 1.02-.01.26.05.52.05.78 0 .14-.1.27-.14.42-.12.46-.23.93-.34 1.39-.02.06-.04.12-.08.18-.2.32-.41.64-.59.97-.12.21-.16.46-.29.66-.24.38-.49.76-.77 1.11-.13.17-.33.3-.52.4-.42.23-.87.42-1.3.64-.15.08-.28.22-.43.29-.14.06-.3.11-.45.1-.41-.02-.83-.09-1.24-.12-.24-.01-.49.02-.73.04-.16.01-.34.09-.45-.12-.02-.03-.07-.06-.11-.06-.53-.07-1.02-.26-1.48-.51-.45-.24-.92-.48-1.31-.81-.42-.35-.75-.81-1.12-1.22-.2-.21-.41-.41-.59-.64-.16-.19-.29-.41-.41-.63-.16-.3-.32-.59-.43-.91-.15-.44-.28-.89-.37-1.34-.09-.44-.16-.89-.15-1.33.01-.29-.09-.6.13-.89.11-.15.12-.38.16-.58.11-.63.18-1.26.32-1.88.08-.36.26-.71.4-1.06.16-.42.33-.84.48-1.26.13-.38.18-.8.37-1.14.24-.45.44-.92.97-1.2.37-.19.78-.23 1.14-.43.09-.05.25-.01.37.01.22.02.42.11.66-.03.16-.09.44-.02.65.04.39.1.76-.01 1.14-.02.27-.01.54.11.81.16.21.04.42.09.63.1.43.01.77.19 1.08.48.19.19.44.32.67.46.33.21.62.45.84.79.13.2.33.37.53.5.24.15.34.42.53.58.38.32.54.71.64 1.17.05.24.13.49.22.72.06.15.14.35.26.39.14.05.33-.04.5-.09.08-.02.14-.11.21-.11.41-.03.75-.23 1.07-.47.07-.06.15-.13.19-.21.12-.23.26-.45.32-.7.14-.53.46-.93.86-1.27.52-.45 1.01-.92 1.62-1.27.55-.32 1.13-.44 1.74-.56.54-.11 1.01.07 1.5.18.46.11.92.26 1.38.38.18.04.37.02.56.06.43.09.58.34.54.78-.01.11.09.3.18.34.28.11.13.39.25.54.19.21.09.35-.04.52-.06.08-.07.19-.11.29-.03-.08-.05-.09-.08-.1zm-13.5 5.49c-.39 0-.75-.03-1.09.01-.34.04-.68.17-1.01.25-.11.03-.23.06-.34.04-.38-.04-.73-.27-1.13-.17-.04.01-.09-.04-.13-.07-.09-.07-.18-.17-.28-.22-.23-.12-.48-.2-.7-.34-.4-.24-.69-.63-1.15-.78-.03-.01-.05-.04-.06-.07-.22-.36-.44-.72-.67-1.07-.04-.06-.11-.11-.17-.16-.03.01-.06.02-.08.03.01.08.01.16.02.24.01.07.06.15.03.2-.29.61-.07 1.24-.05 1.86 0 .13 0 .81.62 1.86-.02.05.07.15.12.21.09.11.21.19.28.3.25.43.69.63 1.1.83.2.1 1.53.61 2.22.5.16-.04.32-.04.41-.12.3-.25.59-.51.85-.79.46-.52.7-1.15.93-1.8.07-.25.18-.49.28-.74zm9.87 14.93c.04-.54.09-1.07.2-1.61.08-.37 0-.78-.02-1.18-.01-.16-.06-.32-.09-.48-.16.1-.34.17-.46.3-.31.36-.62.73-.88 1.13-.29.46-.73.82-.86 1.41-.1.47-.43.87-.62 1.33-.19.43-.24.87-.35 1.31-.06.23-.1.47-.1.71-.01.33.05.65.04.98-.01.54.23.98.56 1.37.19.22.38.16.45-.12.03-.13 1.14-.89 1.39-1.39.25-.5.41-1.75.53-1.79-.07-.1.2-1.73.21-1.97zm-10.16-18.23c-.05-.6-.31-1.03-.54-1.48-.02-.04-.07-.05-.09-.08-.24-.31-.55-.5-.9-.66-.43-.19-.84-.48-1.29-.58-.48-.11-1-.09-1.5.07-.13.04-.31 0-.29.21.01.13 0 .35.06.47.07.26.07.26.13.39.31.93 1.62 1.57 1.67 1.58.45.1.86.47 1.44.37.37.07.86-.02 1.31-.29zm-28.66 9.16c.14.25.01.46-.15.67-.09.13-.14.29-.22.44-.03.06-.07.11-.11.16-.03.05-.06.1-.1.14-.1.14-.19.3-.32.42-.16.15-.35.27-.53.4-.05.04-.09.1-.14.12-.47.23-.92.5-1.41.67-.28.1-.63.11-.91.01-.28-.09-.5 0-.74 0-.14 0-.28-.03-.42-.06-.16-.04-.34-.07-.48-.15-.31-.18-.61-.38-.9-.58-.3-.2-.61-.4-.87-.64-.2-.19-.35-.44-.49-.67-.17-.28-.36-.56-.46-.86-.2-.58-.14-1.18-.05-1.77.03-.16.19-.3.29-.44v-.43c0-.03.01-.07 0-.1-.17-.43.08-.81.12-1.22 0-.05.02-.12.05-.14.23-.14.22-.32.15-.56-.03-.08.05-.22.12-.3.23-.24.45-.47.64-.75.15-.22.48-.32.76-.44.31-.13.65-.21.97-.31.03-.01.08 0 .09-.02.22-.34.47-.02.7-.02.17 0 .34.07.5.13.46.15.98.14 1.36.51.06.06.17.07.27.09.19.05.34.1.45.3.08.15.3.22.45.32.1.06.22.12.34.18.02-.03.07-.08.06-.12-.11-.6-.07-1.17.28-1.7.01-.02.03-.04.03-.06.02-.43.03-.86.05-1.29.01-.25.05-.5.07-.75.02-.23.06-.47.07-.7.01-.31-.09-.66.02-.92.18-.41-.04-.87.24-1.23.02-.02.02-.06.02-.09-.04-.43-.06-.86-.13-1.28-.09-.55-.24-1.09-.08-1.65.02-.06-.03-.14-.06-.21-.16-.37-.12-.75-.05-1.14.01-.08-.02-.17-.02-.25.01-.19-.22-.37-.02-.58.02-.03-.06-.16-.09-.23-.29.26-.58.49-.81.76-.19.22-.32.48-.45.74-.09.18-.08.41-.18.57-.08.12-.26.25-.39.24-.69-.03-1.19.54-1.25.44-.14.03-.28.05-.45.09-.14-.14-.35-.26-.41-.43-.06-.16.05-.38.09-.65-.18-.16-.03-.4.09-.65.04-.07.04-.16.07-.24.08-.22.13-.47.26-.66.22-.33.5-.62.74-.93.24-.32.46-.66.71-.97.1-.12.29-.17.41-.29.32-.31.18-.29.6-.49.28-.14.45-.24.47-.28.23-.19.34-.18.65-.54.12-.07.28-.46.27-.53-.06-.5-.19-.82-.24-1.07-.16-.35-.13-.62-.36-1.03-.25-.3-.4-.7-.67-.98-.25-.26-1.01-.29-1.24-.04-.21.22-.34.51-.5.77-.04.06-.03.19-.06.2-.47.12-.25.75-.68.92-.11.04-.15.26-.22.4-.04.08-.05.18-.11.23-.39.31-.32.78-.42 1.19-.12.52-.39.97-.82 1.28-.3.21-.92 0-1.12-.33-.19-.31-.27-.62-.22-1.01.08-.64.05-1.3.04-1.95-.01-.27.03-.51.15-.76.15-.31.19-.68.33-.99.2-.45.42-.89.69-1.3.2-.3.47-.55.72-.82.06-.07.17-.11.21-.19.25-.44.71-.44 1.11-.57.07-.02.16-.01.21-.05.36-.3.75-.46 1.22-.27.08.03.22-.09.31-.07.28.05.56.11.81.22.45.21.81.55 1.15.91.12.13.28.22.42.33.51.42.88.96 1.25 1.49.23.33.39.71.57 1.08.06.13.05.28.08.42.03.13.06.27.1.4.09.23.18.46.3.75.36-.1.81-.21 1.24-.36.28-.1.55-.24.83-.36.04-.02.12-.03.15-.01.36.31.79.08 1.17.16.4.08.81.11 1.2.23.55.17 1.09.38 1.62.6.32.13.59.35.91.49.35.16.6.5 1.03.54.18.02.4.14.35.39.34.24.66.46.98.69.18.13.34.26.46.48.15.28.45.46.67.7.2.22.38.45.57.68.11.13.22.25.3.38.07.14.14.27.2.41.13.28.25.56.39.83.1.21.19.39.12.65-.03.12.1.28.16.42.11.22.27.42.32.66.1.43.15.88.21 1.32.05.44-.04.95.15 1.32.17.33-.02.61.09.91.11.28 0 .64.07.94.1.42 0 .81-.09 1.2-.01.03-.02.07-.01.09.18.32.03.59-.1.87-.15.33-.26.68-.37 1.03-.02.05.03.12.03.18 0 .08.02.18-.01.25-.17.3-.38.58-.54.89-.17.34-.27.72-.45 1.06-.27.5-.37 1.1-.81 1.5-.27.24-.38.58-.53.89-.02.05-.03.1-.06.15-.27.42-.53.86-.84 1.25-.18.23-.39.44-.55.7-.16.26-.56.41-.89.54-.44.17-.84.39-1.23.66-.27.19-.61.29-.96.26-.19-.02-.39-.03-.57.02-.65.2-1.32.07-1.97.1-.64.03-1.19-.24-1.76-.42-.48-.15-.96-.31-1.42-.52-.51-.24-.97-.58-1.49-.79-.29-.12-.47-.29-.64-.51-.14-.19-.28-.15-.42.01-.09.11-.19.18-.29.28zm3.18-17.93c.02.26.05.51.06.76.03.42.05.85.08 1.27 0 .04 0 .08-.01.12-.04.33-.16.67-.11.98.11.66 0 1.31.01 1.97.01.44.01.88-.15 1.3-.09.24-.15.55-.07.78.18.48 0 .92-.02 1.37-.01.4-.09.8-.12 1.21-.03.36-.04.72-.07 1.08-.01.06-.08.12-.1.18-.05.15-.11.3-.13.45-.02.11.04.24.01.34-.05.17-.17.33-.22.5-.15.56-.27 1.12-.4 1.68-.05.22.05.39.23.52.22.16.43.35.67.47.45.23.93.39 1.36.64.43.25.9.27 1.36.26.45-.01.96.03 1.26-.46.01-.02.04-.02.05-.03.71-.29 1.06-.95 1.49-1.52.22-.29.32-.68.56-.94.28-.29.42-.64.57-.99.1-.24.16-.51.31-.7.3-.38.25-.85.4-1.26.07-.19.12-.39.18-.59.06-.18.15-.36.2-.54.09-.31.17-.63.24-.94.08-.38.22-.76-.05-1.13-.03-.04-.06-.13-.04-.16.17-.27.02-.48-.08-.72-.06-.14-.09-.29-.1-.44-.02-.28.03-.58-.04-.84-.21-.77-.8-1.3-1.27-1.9-.15-.2-.35-.36-.52-.54-.05-.05-.12-.08-.17-.13-.15-.14-.29-.3-.46-.43-.3-.22-.6-.44-.92-.64-.08-.05-.24.03-.34-.01-.32-.14-.63-.32-.95-.46-.22-.09-.46-.13-.69-.22-.14-.05-.26-.13-.39-.2-.06-.03-.12-.11-.18-.11-.46.02-.93.02-1.44.02zM88 28.55c.19.08.33.16.49.18.31.05.66.17.93.07.31-.11.56-.42.82-.66.11-.1.18-.26.26-.4.19-.3.39-.59.56-.91.04-.07.01-.26-.05-.3-.45-.3-.89-.6-1.37-.85-.56-.29-.91-.13-1.14.46-.11.27-.27.53-.37.81-.08.23-.17.49-.15.73.02.23.16.45.25.69-.05.05-.13.11-.23.18zm-24.52 1.52c-.31.15-.55.23-.74.38-.64.48-1.35.72-2.15.76-.54.03-1.07.17-1.6.21-.33.03-.68-.04-1.01-.04-.21 0-.42.04-.63.05-.39.01-.81.08-1.18-.02-.7-.18-1.44-.25-2.06-.76-.66-.54-1.35-1.06-2-1.62-.02-.01-.04-.03-.04-.04 0-.46-.47-.55-.68-.85-.21-.3-.52-.53-.77-.81-.43-.46-.86-.92-1.26-1.4-.24-.3-.38-.33-.69-.08-.15.12-.33.2-.5.27-.4.15-.8.3-1.21.43-.23.07-.47.09-.7.14-.07.01-.14.03-.21.07-.22.11-.77.05-.95-.11-.4-.36-.64-2.07-.61-2.26.03-.18.08-.38.37-.44.48-.1.95-.28 1.43-.44.41-.14.81-.3 1.28-.48-.09-.34-.19-.68-.28-1.03-.02-.07.01-.15-.01-.22-.04-.15-.08-.29-.13-.44-.1-.31-.24-.61-.3-.92-.03-.18.08-.38.08-.58 0-.34.04-.7-.17-1.01-.04-.07-.01-.19 0-.29 0-.05.05-.11.04-.14-.17-.34-.18-.68-.02-1.03.01-.03.02-.06.01-.09-.06-.26-.22-.52-.18-.77.07-.5-.23-.96-.12-1.45.07-.29.16-.58.2-.87.02-.15-.04-.32-.07-.48.03-.14.07-.3.11-.46.02-.09.02-.2.08-.27.21-.28.44-.55.65-.82.06-.07.1-.16.16-.23.12-.14.24-.29.39-.4.27-.21.55-.39.83-.58.11-.08.23-.17.36-.2.43-.08.82-.39 1.29-.26.04.01.09.01.12-.01.25-.22.55-.14.85-.16.57-.04 1.09.16 1.63.23.38.05.66.25.98.37.31.12.54.44.8.67.03.03.02.09.02.14 0 .05-.04.12-.02.15.14.18.13.46.24.6.35.45.15.93.2 1.4.02.17.01.34.02.51.03.56-.07 1.08-.36 1.56-.08.14-.09.35-.07.52.03.43-.2.76-.38 1.11-.03.06-.04.14-.06.21-.13.42-.24.85-.42 1.24-.07.15-.37.19-.35.44.03.53-.44.84-.58 1.3-.08.27-.23.53-.35.78-.07.14-.15.28-.24.41-.21.3-.44.59-.66.88-.02.03-.01.09-.01.15.44.74.99 1.27 1.2 1.55.15.2.23.46.38.67.11.16.31.25.4.42.28.52.62 1 1.1 1.36.04.03.11.07.11.11.04.4.39.46.65.62.25.15.46.36.72.48.3.13.65.27.96.25.51-.03 1.01-.18 1.51-.31.51-.14 1.02-.31 1.52-.49.22-.08.45-.19.63-.34.06-.05.05-.3-.01-.39-.25-.35-.58-.64-.71-1.08-.03-.1-.14-.19-.23-.26-.37-.26-.51-.64-.59-1.07-.03-.15-.19-.26-.27-.4-.11-.2-.21-.42-.31-.63-.02-.04-.02-.09-.04-.12-.37-.34-.38-.83-.51-1.26-.14-.48-.32-.93-.15-1.48.23-.75.3-1.55.44-2.33.01-.07.12-.5.17-.55.18-.51.18-.51.53-.86.14-.14.54-.67.68-.79.4-.32.57-.57.99-.61.72-.29.83-.2 1.08-.29.19-.06.38-.14.79-.07.03.01.26.16.32.14.32-.07.28.18.59.28.31.1.61.18.89.37.41.29.75.61 1.01 1.04.14.23.33.43.5.64.17.22.35.44.48.69.05.09-.06.24-.05.36.03.25.06.51.14.74.2.53.05 1.09.17 1.63.03.11-.04.25-.07.37-.01.08-.04.17-.03.25.03.28.09.55.1.83 0 .18-.09.36-.12.55-.09.47-.17.94-.25 1.4-.01.05-.03.11-.01.16.24.72-.08 1.32-.42 1.9-.12.2-.32.6-.3 1.07.01.06.01.14.04.15.54.28.94.79 1.58.9.23.04.46.23.67.2.44-.06.89-.17 1.31-.33.46-.18.92-.29 1.42-.22.34.05.57.38.5.72-.04.21-.08.42-.13.63-.02.09-.06.19-.12.26-.24.26-.53.49-.74.78-.27.38-.68.56-1.05.8-.54.36-1.14.42-1.76.37-.19-.01-.36-.11-.55-.14-.29-.04-.57-.26-.89-.11-.04.02-.12-.02-.18-.04-.54-.22-1.07-.43-1.61-.65-.08-.03-.16-.07-.22-.12-.23-.24-.44-.47-.63-.67zm-.7-12.05c-.13.08-.26.18-.41.24-.26.11-.54.18-.8.28-.08.03-.16.12-.18.21-.15.54-.31 1.08-.43 1.63-.05.22-.03.47.03.69.11.4.31.78.41 1.18.17.73.5 1.34 1.08 1.81.16.13.27.32.42.46.14.14.24.35.52.27.24-.07.29-.19.32-.43.06-.47.2-.92.31-1.39.08-.33.31-.65.08-1-.01-.02 0-.06 0-.09.04-.4.1-.79.11-1.19.01-.3-.02-.61-.08-.91-.08-.38-.19-.75-.32-1.12-.04-.13-.13-.3-.25-.36-.23-.12-.51-.18-.81-.28zm-11.86-4.66c-.1.03-.28.03-.33.11-.19.28-.34.59-.5.89-.04.07-.01.2-.06.24-.24.16-.21.39-.24.62-.05.48-.14.97-.19 1.45-.03.34-.08.7-.02 1.03.1.55.28 1.09.44 1.63.02.06.09.11.13.16.06-.05.13-.1.16-.17.06-.14.06-.3.13-.42.32-.6.71-1.15 1.16-1.66.4-.45.35-1.04.48-1.57.08-.34.02-.72.15-1.03.11-.25-.05-.38-.1-.55-.05-.18-.18-.39-.33-.47-.27-.15-.57-.18-.88-.26zm28.97 14.58c.09.53-.36.76-.64 1.04s-.69.41-.98.68c-.54.5-1.09.32-1.64.08-.37-.16-.72-.36-1.07-.56-.39-.23-.56-.74-.46-1.19.04-.2.05-.42.02-.62-.04-.26.13-.42.22-.62.06-.12.14-.26.14-.38 0-.47.24-.74.66-.89.07-.02.14-.06.18-.12.42-.64.93-.51 1.58-.28.11.04.22.07.32.12.3.17.59.34.87.52.09.05.16.13.24.21.06.05.13.11.15.18.12.43.22.87.32 1.3.03.18.06.36.09.53zm66.85-21.42c-.04.2-.06.38-.11.55-.03.11-.09.23-.18.3-.12.1-.26.17-.41.21-.12.04-.26.01-.4.01-.03 0-.07-.02-.08-.04-.08-.11-.16-.23-.24-.34-.09-.12-.2-.22-.3-.34-.01.01-.03.02-.04.03 0 .04-.01.08-.01.11.01.46.02.92.03 1.37 0 .18-.15.38-.32.43-.02.01-.06.01-.07.03-.16.16-.32.07-.46-.03-.15-.11-.23-.24-.2-.45.06-.4 0-.81-.02-1.21-.02-.31-.02-.61-.04-.92-.01-.22-.03-.44-.03-.67 0-.05.06-.11.1-.16.03-.04.07-.06.09-.1.06-.19.24-.24.37-.31.09-.05.27-.01.38.04.11.05.27.09.26.28 0 .03.03.07.06.09.2.18.39.37.6.55.08.07.17.02.19-.11.06-.26.13-.52.19-.79.03-.13.04-.27.05-.41.01-.25.3-.52.55-.52.02 0 .04 0 .06-.01.19-.1.39-.04.5.13.01.02.02.05.04.06.16.1.18.25.16.42-.01.07.04.14.07.21.01.02.03.03.03.05 0 .16.05.31.1.46.09.24.16.5.2.76.08.5.31.95.44 1.43.03.11.14.2.19.32.09.23.1.47-.04.69-.1.16-.58.28-.76.2-.01-.01-.03-.01-.04-.03-.1-.19-.28-.33-.35-.55-.08-.24-.06-.5-.15-.74-.11-.31-.21-.62-.31-.93-.01-.01-.05-.03-.1-.07zm-5.82-.37c-.13.05-.27.11-.41.17.01.01.01.02.02.03-.09-.01-.19-.02-.28-.02-.03 0-.06.01-.08.03-.24.19-.61.15-.78-.1-.03-.04-.04-.11-.04-.16 0-.12.01-.24.04-.35.02-.05.1-.09.16-.13.04-.03.12-.05.13-.09.03-.15.14-.15.23-.14.32.02.58-.16.87-.25.02-.01.03-.03.04-.04.19-.33.21-.36.55-.25.23.08.43.04.64-.03.32-.11.61-.07.86.18.03.03.07.09.06.11-.07.21-.17.44-.35.56-.19.12-.42.17-.63.24-.17.06-.19.1-.09.24.01.02.03.03.03.05.06.19.12.37.17.56.05.15.09.3.13.46.04.18.07.36.11.54.05.18.13.35.16.53.03.17.03.35.02.53-.01.1-.06.2-.07.31-.02.21-.21.23-.34.31-.02.02-.08 0-.12-.02-.14-.08-.3-.15-.42-.27-.06-.06-.05-.2-.06-.31 0-.02.03-.05.02-.05-.17-.19-.02-.4-.05-.59-.02-.14-.07-.28-.1-.42-.08-.37-.16-.74-.25-1.11-.03-.18-.1-.33-.17-.52z"/></symbol>

	<symbol id="SubscriptionClock" xmlns="http://www.w3.org/2000/svg" viewBox="0 0 14.69 16.01"> <path d="M14.4 8.15c-.13-1.56-.76-3.03-1.8-4.2-.23-.21-.59-.2-.8.03-.2.22-.2.56 0 .77 2.24 2.46 2.06 6.26-.4 8.5s-6.26 2.06-8.5-.4C.66 10.46.78 6.72 3.16 4.47c.04-.04.09-.08.14-.12.98-.87 2.2-1.42 3.5-1.6v1.3l3.05-1.7c.15-.09.15-.31-.01-.4L6.8.25v1.4C2.87 1.96-.05 5.42.31 9.35.65 13.09 4.05 16 7.8 15.76c3.94-.26 6.9-3.69 6.6-7.61z" /> <path d="M6.85 5.51c0-.28-.22-.5-.5-.5s-.5.22-.5.5v4.59c0 .28.22.5.5.5h4.5c.28 0 .5-.22.5-.5s-.22-.5-.5-.5h-4V5.51z" /> </symbol>
</svg>
